# xmcd
#
# Track frame offsets: 
#        150
#        16044
#        32091
#        49183
#        61399
#        79543
#        93709
#        107582
#        130525
#        140867
#        155333
#        165229
#
# Disc length: 2489 seconds
#
# Revision: 0
# Processed by: cddbd v1.5.2PL0 Copyright (c) Steve Scherf et al.
# Submitted via: ExactAudioCopy v1.3
#
DISCID=8e09b70c
DTITLE=Sauce Boss - 100% Pure
DYEAR=2014
DGENRE=Blues
TTITLE0=Zipper Bird
TTITLE1=Marquis de Swamp
TTITLE2=Gonna Be All Right
TTITLE3=Chains
TTITLE4=Delta 9 Blues
TTITLE5=Peckerwood
TTITLE6=Chicago Combat Zone
TTITLE7=Cadillac of a Woman
TTITLE8=Hey Wilbur
TTITLE9=Sun
TTITLE10=Song Of The Irish Band
TTITLE11=Outlaw Blues
EXTD=
EXTT0=
EXTT1=
EXTT2=
EXTT3=
EXTT4=
EXTT5=
EXTT6=
EXTT7=
EXTT8=
EXTT9=
EXTT10=
EXTT11=
PLAYORDER=
